<?xml version="1.0" encoding="UTF-8" standalone="no"?>
<svg
   xmlns:dc="http://purl.org/dc/elements/1.1/"
   xmlns:cc="http://creativecommons.org/ns#"
   xmlns:rdf="http://www.w3.org/1999/02/22-rdf-syntax-ns#"
   xmlns:svg="http://www.w3.org/2000/svg"
   xmlns="http://www.w3.org/2000/svg"
   xmlns:sodipodi="http://sodipodi.sourceforge.net/DTD/sodipodi-0.dtd"
   xmlns:inkscape="http://www.inkscape.org/namespaces/inkscape"
   style="enable-background:new"
   version="1.1"
   id="svg4507"
   viewBox="0 0 459.99998 100"
   height="100"
   width="460"
   inkscape:version="0.91 r13725"
   sodipodi:docname="logo-all-white.svg">
  <sodipodi:namedview
     pagecolor="#ffffff"
     bordercolor="#666666"
     borderopacity="1"
     objecttolerance="10"
     gridtolerance="10"
     guidetolerance="10"
     inkscape:pageopacity="0"
     inkscape:pageshadow="2"
     inkscape:window-width="1366"
     inkscape:window-height="744"
     id="namedview19"
     showgrid="false"
     inkscape:zoom="0.64782609"
     inkscape:cx="254.69799"
     inkscape:cy="50"
     inkscape:window-x="0"
     inkscape:window-y="24"
     inkscape:window-maximized="1"
     inkscape:current-layer="text4170" />
  <defs
     id="defs4509" />
  <metadata
     id="metadata4512">
    <rdf:RDF>
      <cc:Work
         rdf:about="">
        <dc:format>image/svg+xml</dc:format>
        <dc:type
           rdf:resource="http://purl.org/dc/dcmitype/StillImage" />
        <dc:title></dc:title>
      </cc:Work>
    </rdf:RDF>
  </metadata>
  <path
     inkscape:connector-curvature="0"
     style="fill:#ffffff"
     d="M 52.66016,2.33078 A 48.661286,47.833892 0 0 0 13.08502,22.39881 L 44.94984,54.03762 56.68341,42.5513 50.01908,36.01128 49.907,35.86068 c -1.50525,-2.03428 -2.23764,-4.30076 -2.23764,-6.93292 0,-6.69133 5.54106,-12.13628 12.34622,-12.13628 6.80516,0 12.34247,5.44495 12.34247,12.13628 0,2.88973 -0.99623,5.49397 -2.9586,7.74447 l -0.12317,0.13217 -5.86866,5.75051 31.64815,31.04027 A 48.661286,47.833892 0 0 0 101.32414,50.16351 48.661286,47.833892 0 0 0 52.66025,2.33072 Z m 7.35915,19.13531 c -4.19058,0 -7.59823,3.34794 -7.59823,7.46539 0.002,1.56989 0.39318,2.86396 1.229,4.05031 l 6.39913,6.27564 5.80888,-5.6881 c 1.18393,-1.38189 1.75575,-2.89874 1.75575,-4.63785 0,-4.11745 -3.40394,-7.46539 -7.59453,-7.46539 z M 10.42525,26.47851 A 48.661286,47.833892 0 0 0 4,50.16356 48.661286,47.833892 0 0 0 52.66016,98.00001 48.661286,47.833892 0 0 0 92.52292,77.56109 l -32.47746,-31.71226 -11.7485,11.50471 6.2945,6.2646 c 1.68886,2.17153 2.58132,4.69957 2.58132,7.31481 -0.002,6.68945 -5.54106,12.13263 -12.34622,12.13263 -6.80708,0 -12.34247,-5.44496 -12.34247,-12.13629 0,-2.26742 0.61873,-4.45973 1.79309,-6.34173 L 34.42293,64.35255 41.59158,57.3315 10.42531,26.47851 Z m 34.51339,34.1689 -6.74654,6.60244 c -0.62926,1.09798 -0.96005,2.36514 -0.96005,3.6831 0,4.1137 3.40958,7.46538 7.59826,7.46538 4.18867,0 7.59823,-3.34792 7.59823,-7.46538 0,-1.56049 -0.51253,-3.0238 -1.51666,-4.36245 l -5.97324,-5.92309 z"
     id="circle15" />
  <g
     style="font-style:normal;font-variant:normal;font-weight:normal;font-stretch:normal;font-size:62.50000381px;line-height:125%;font-family:Gen;-inkscape-font-specification:'Gen, Normal';text-align:start;letter-spacing:0px;word-spacing:0px;writing-mode:lr-tb;text-anchor:start;fill:#ffffff;fill-opacity:1;stroke:none;stroke-width:1px;stroke-linecap:butt;stroke-linejoin:miter;stroke-opacity:1"
     id="text4170"
     transform="translate(-210.46225,-149.84637)">
    <path
       inkscape:connector-curvature="0"
       d="m 343.84122,189.93167 c 5.5625,0 8.6875,5.5 8.6875,11.625 0,6.25 -3.1875,11.875 -8.6875,11.875 -12.8125,0 -12.8125,-23.5 0,-23.5 z m -9.1875,-4.25 -5.625,0 0,43.4375 5.625,0 0,-14.625 c 2.4375,2.6875 5.25,4 9.1875,4 9.5,0.0625 14.5625,-8.8125 14.5625,-17.0625 0,-8.25 -4.9375,-16.625 -14.5625,-16.625 -3.75,0 -6.375,1.375 -9.1875,4.5 l 0,-3.625 z"
       style="fill:#ffffff"
       id="path4141" />
    <path
       inkscape:connector-curvature="0"
       d="m 370.01505,171.99417 -5.625,0 0,45.125 5.625,0 0,-19.125 c 0,-5.3125 3.5,-8.625 9,-8.625 4.8125,0 6.375,3.9375 6.375,8.625 l 0,19.125 5.625,0 0,-19.125 c 0,-7.3125 -3.0625,-13.6875 -12,-13.6875 -3.6875,0 -6.9375,1.25 -9,5 l 0,-17.3125 z"
       style="fill:#ffffff"
       id="path4143" />
    <path
       inkscape:connector-curvature="0"
       d="m 413.05509,189.93167 c 5.5625,0 8.6875,5.5 8.6875,11.625 0,6.25 -3.1875,11.875 -8.6875,11.875 -12.8125,0 -12.8125,-23.5 0,-23.5 z m -9.1875,-4.25 -5.625,0 0,43.4375 5.625,0 0,-14.625 c 2.4375,2.6875 5.25,4 9.1875,4 9.5,0.0625 14.5625,-8.8125 14.5625,-17.0625 0,-8.25 -4.9375,-16.625 -14.5625,-16.625 -3.75,0 -6.375,1.375 -9.1875,4.5 l 0,-3.625 z"
       style="fill:#ffffff"
       id="path4145" />
    <path
       inkscape:connector-curvature="0"
       d="m 463.47893,217.11917 0,-5.375 -22.6875,0 0,-39.75 -5.9375,0 0,45.125 28.625,0 z"
       style="fill:#ffffff"
       id="path4147" />
    <path
       inkscape:connector-curvature="0"
       d="m 474.14104,217.11917 0,-31.9375 -5.625,0 0,31.9375 5.625,0 z m 0.3125,-38.8125 0,-6.3125 -6.25,0 0,6.3125 6.25,0 z"
       style="fill:#ffffff"
       id="path4149" />
    <path
       inkscape:connector-curvature="0"
       d="m 492.99748,218.05667 c 6.125,0 13.125,-2.8125 13.125,-10.0625 0,-6.625 -5.75,-8.5 -10.6875,-9.6875 -1.25,-0.25 -2.5,-0.5625 -3.625,-0.8125 -1.125,-0.25 -2.1875,-0.5625 -3.0625,-0.9375 -1.75,-0.6875 -2.5625,-1.5 -2.5625,-2.8125 0,-2.75 2.9375,-3.9375 6.125,-3.9375 3.3125,0 6.8125,1.3125 6.8125,6.75 l 5.9375,0 c 0,-9.0625 -6.5625,-11.75 -12.75,-11.75 -5.6875,0 -12.0625,1.9375 -12.0625,8.9375 0,7.8125 8.5,8.4375 14.3125,9.875 1.125,0.3125 2.125,0.625 3,1 1.625,0.75 2.5625,1.75 2.5625,3.375 0,3.375 -3.5625,5.0625 -7.25,5.0625 -3.625,0 -6.5625,-2.1875 -6.875,-6.9375 l -5.875,0 c 0.125,8.125 6.4375,11.9375 12.875,11.9375 z"
       style="fill:#ffffff"
       id="path4151" />
    <path
       inkscape:connector-curvature="0"
       d="m 523.58928,218.05667 c 1.4375,0 2.75,-0.25 4.75,-0.75 l 0,-4.625 c -1.6875,0.1875 -2.3125,0.3125 -2.9375,0.4375 -0.625,0.0625 -1.1875,0.1875 -1.75,0.1875 -2.9375,0 -2.875,-2.8125 -2.875,-5.0625 l 0,-17.8125 7.5625,0 0,-4.6875 -7.5625,0 0,-8.3125 -5.625,0 0,8.3125 -6.25,0 0,4.6875 6.25,0 0,17.8125 c 0,5.75 0.625,9.8125 8.4375,9.8125 z"
       style="fill:#ffffff"
       id="path4153" />
  </g>
</svg>
